<?xml version="1.0" encoding="UTF-8"?>
<svg width="150" height="150" viewBox="0 0 150 150" xmlns="http://www.w3.org/2000/svg">
  <!-- Background Circle -->
  <circle cx="75" cy="75" r="70" fill="#F59E0B" fill-opacity="0.1" stroke="#F59E0B" stroke-width="2"/>
  
  <!-- Main Hand Illustration -->
  <g transform="translate(75, 75)" opacity="0.8">
    <!-- Base hand shape -->
    <path d="M-25,-30 Q-30,-25 -30,-15 L-30,20 Q-25,25 -20,25 L20,25 Q25,20 25,15 L25,-15 Q25,-25 20,-30 Z" 
          fill="#FFDBAC" stroke="#D4A574" stroke-width="3"/>
    
    <!-- Thumb -->
    <ellipse cx="-20" cy="0" rx="8" ry="15" fill="#FFDBAC" stroke="#D4A574" stroke-width="3"/>
    
    <!-- Index finger -->
    <rect x="-10" y="-35" width="6" height="25" rx="3" fill="#FFDBAC" stroke="#D4A574" stroke-width="3"/>
    
    <!-- Middle finger -->
    <rect x="-2" y="-40" width="6" height="30" rx="3" fill="#FFDBAC" stroke="#D4A574" stroke-width="3"/>
    
    <!-- Ring finger -->
    <rect x="6" y="-35" width="6" height="25" rx="3" fill="#FFDBAC" stroke="#D4A574" stroke-width="3"/>
    
    <!-- Pinky finger -->
    <rect x="14" y="-30" width="5" height="20" rx="2.5" fill="#FFDBAC" stroke="#D4A574" stroke-width="3"/>
    
    <!-- Palm details -->
    <path d="M-15,10 Q0,15 15,10" stroke="#D4A574" stroke-width="1" fill="none" opacity="0.6"/>
    <path d="M-10,18 Q0,20 10,18" stroke="#D4A574" stroke-width="1" fill="none" opacity="0.6"/>
  </g>
  
  <!-- Word Label -->
  <text x="75" y="135" text-anchor="middle" font-family="Arial, sans-serif" font-size="12" font-weight="bold" fill="#F59E0B">
    Brother
  </text>
  
  <!-- Category Badge -->
  <rect x="5" y="5" width="50" height="18" rx="9" fill="#F59E0B" fill-opacity="0.2" stroke="#F59E0B" stroke-width="1"/>
  <text x="30" y="16" text-anchor="middle" font-family="Arial, sans-serif" font-size="9" font-weight="bold" fill="#F59E0B">
    Family
  </text>
  
  <!-- Difficulty Indicator -->
  <circle cx="130" cy="20" r="8" fill="#F59E0B" fill-opacity="0.3"/>
  <text x="130" y="24" text-anchor="middle" font-family="Arial, sans-serif" font-size="8" font-weight="bold" fill="#F59E0B">
    M
  </text>
</svg>